# xmcd
#
# Track frame offsets: 
#        150
#        48635
#        99323
#        127773
#        166200
#        212794
#        244352
#
# Disc length: 3999 seconds
#
# Revision: 1
# Processed by: cddbd v1.5.2PL0 Copyright (c) Steve Scherf et al.
# Submitted via: ExactAudioCopy v0.99pb5
#
DISCID=5a0f9d07
DTITLE=Roman Schwaller Jazzquartet - Live in Vienna
DYEAR=1987
DGENRE=Jazz
TTITLE0=Beautiful Love
TTITLE1=Moblybop
TTITLE2=Body and Soul
TTITLE3=Broadway
TTITLE4=Love Someone You Like
TTITLE5=La Ballade Pour Pipette
TTITLE6=Bolivia
EXTD=YEAR: 1987
EXTT0=
EXTT1=
EXTT2=
EXTT3=
EXTT4=
EXTT5=
EXTT6=
PLAYORDER=
